<?xml version="1.0" encoding="utf-8"?>
<svg version="1.1" xmlns:xlink="http://www.w3.org/1999/xlink" width="70px" height="67px" xmlns="http://www.w3.org/2000/svg">
  <g transform="matrix(1 0 0 1 -388 -341 )">
    <path d="M 388 341  L 458 341  L 458 408  L 388 408  L 388 341  " fill-rule="nonzero" fill="#cccccc" stroke="none" />
    <path d="M 393 346  L 453 346  L 453 403  L 393 403  L 393 346  " fill-rule="nonzero" fill="#ffffff" stroke="none" />
    <path d="M 429.42499999999995 361.1  C 426.611 361.1  424.4 358.889  424.4 356.07500000000005  C 424.4 353.261  426.611 351.05  429.42499999999995 351.05  C 432.239 351.05  434.45 353.261  434.45 356.07500000000005  C 434.45 358.889  432.239 361.1  429.42499999999995 361.1  " fill-rule="nonzero" fill="#cccccc" stroke="none" />
    <path d="M 395 402  L 395 372.3  L 409.25 358.8  L 429.2 370.98857142857145  L 440.6 366.9  L 452 370.98857142857145  L 452 402  L 395 402  " fill-rule="nonzero" fill="#169bd5" stroke="none" />
  </g>
</svg>