<?xml version="1.0" encoding="utf-8"?>
<svg version="1.1" xmlns:xlink="http://www.w3.org/1999/xlink" width="232px" height="68px" xmlns="http://www.w3.org/2000/svg">
  <g transform="matrix(1 0 0 1 -208 0 )">
    <path d="M 412.9365827858974 0.5  C 412.9365827858974 0.5  416.54848277545875 1.0293301708839915  416.54848277545875 1.0293301708839915  C 416.54848277545875 1.0293301708839915  439.4408116310101 34  439.4408116310101 34  C 439.4408116310101 34  416.54848277545875 66.970669829116  416.54848277545875 66.970669829116  C 416.54848277545875 66.970669829116  412.9365827858974 67.5  412.9365827858974 67.5  C 412.9365827858974 67.5  208.5 67.5  208.5 67.5  C 208.5 67.5  208.5 0.4999999999999982  208.5 0.4999999999999982  C 208.5 0.4999999999999982  412.9365827858974 0.5  412.9365827858974 0.5  Z " fill-rule="nonzero" fill="#ffffff" stroke="none" />
    <path d="M 412.9365827858974 0.5  C 412.9365827858974 0.5  416.54848277545875 1.0293301708839915  416.54848277545875 1.0293301708839915  C 416.54848277545875 1.0293301708839915  439.4408116310101 34  439.4408116310101 34  C 439.4408116310101 34  416.54848277545875 66.970669829116  416.54848277545875 66.970669829116  C 416.54848277545875 66.970669829116  412.9365827858974 67.5  412.9365827858974 67.5  C 412.9365827858974 67.5  208.5 67.5  208.5 67.5  C 208.5 67.5  208.5 0.4999999999999982  208.5 0.4999999999999982  C 208.5 0.4999999999999982  412.9365827858974 0.5  412.9365827858974 0.5  Z " stroke-width="1" stroke="#8c8c8c" fill="none" />
  </g>
</svg>