<?xml version="1.0" encoding="utf-8"?>
<svg version="1.1" xmlns:xlink="http://www.w3.org/1999/xlink" width="232px" height="68px" xmlns="http://www.w3.org/2000/svg">
  <g transform="matrix(1 0 0 1 1 0 )">
    <path d="M 203.93658278589737 0.5  C 203.93658278589737 0.5  207.54848277545872 1.0293301708839915  207.54848277545872 1.0293301708839915  C 207.54848277545872 1.0293301708839915  230.44081163101006 34  230.44081163101006 34  C 230.44081163101006 34  207.54848277545872 66.970669829116  207.54848277545872 66.970669829116  C 207.54848277545872 66.970669829116  203.93658278589734 67.5  203.93658278589734 67.5  C 203.93658278589734 67.5  -0.49999999999998934 67.5  -0.49999999999998934 67.5  C -0.49999999999998934 67.5  -0.5 0.4999999999999982  -0.5 0.4999999999999982  C -0.5 0.4999999999999982  203.93658278589737 0.5  203.93658278589737 0.5  Z " fill-rule="nonzero" fill="#169bd5" stroke="none" />
    <path d="M 203.93658278589737 0.5  C 203.93658278589737 0.5  207.54848277545872 1.0293301708839915  207.54848277545872 1.0293301708839915  C 207.54848277545872 1.0293301708839915  230.44081163101006 34  230.44081163101006 34  C 230.44081163101006 34  207.54848277545872 66.970669829116  207.54848277545872 66.970669829116  C 207.54848277545872 66.970669829116  203.93658278589734 67.5  203.93658278589734 67.5  C 203.93658278589734 67.5  -0.49999999999998934 67.5  -0.49999999999998934 67.5  C -0.49999999999998934 67.5  -0.5 0.4999999999999982  -0.5 0.4999999999999982  C -0.5 0.4999999999999982  203.93658278589737 0.5  203.93658278589737 0.5  Z " stroke-width="1" stroke="#169bd5" fill="none" />
  </g>
</svg>